<svg id="Layer_1" data-name="Layer 1" xmlns="http://www.w3.org/2000/svg" viewBox="0 0 50 50"><defs><style>.cls-1{fill:#2d2d2d;}</style></defs><title>Artboard 42</title><polygon class="cls-1" points="32.93 10.51 32.93 20.66 16.58 20.66 16.58 10.51 14.32 10.51 14.32 37.57 16.58 37.57 16.58 22.91 23.34 22.91 23.34 33.06 25.6 33.06 25.6 22.91 32.93 22.91 32.93 37.57 35.18 37.57 35.18 10.51 32.93 10.51"/><polygon class="cls-1" points="27.85 35.42 21.09 35.42 21.09 25.73 18.83 25.73 18.83 37.57 30.11 37.57 30.11 25.73 27.85 25.73 27.85 35.42"/><path class="cls-1" d="M24.75,47a23,23,0,1,1,23-23A23,23,0,0,1,24.75,47Zm.1-44.06a21,21,0,1,0,21,21A21,21,0,0,0,24.85,2.94Z"/></svg>