<svg id="Layer_1" data-name="Layer 1" xmlns="http://www.w3.org/2000/svg" viewBox="0 0 58 57"><defs><style>.cls-1{fill:#706f8d;}</style></defs><title>ICTE Base</title><polygon class="cls-1" points="37.75 14.02 37.75 24.88 20.25 24.88 20.25 14.02 17.84 14.02 17.84 42.98 20.25 42.98 20.25 27.29 27.49 27.29 27.49 38.15 29.91 38.15 29.91 27.29 37.75 27.29 37.75 42.98 40.16 42.98 40.16 14.02 37.75 14.02"/><polygon class="cls-1" points="32.32 40.67 25.08 40.67 25.08 30.31 22.66 30.31 22.66 42.98 34.73 42.98 34.73 30.31 32.32 30.31 32.32 40.67"/><path class="cls-1" d="M29,53.07A24.57,24.57,0,1,1,53.57,28.5,24.6,24.6,0,0,1,29,53.07ZM29,5.14A23.36,23.36,0,1,0,52.36,28.5,23.39,23.39,0,0,0,29,5.14Z"/></svg>
