<svg id="Layer_1" data-name="Layer 1" xmlns="http://www.w3.org/2000/svg" viewBox="0 0 184 52"><defs><style>.cls-1{fill:#2d2d2d;}.cls-2{fill:#e86e71;}.cls-3{fill:#ec7780;}.cls-4{fill:#bed7f0;}.cls-5{fill:#cfe9fa;}.cls-6{fill:#8acdd5;}.cls-7{fill:#98d2da;}</style></defs><title>ICTE Base</title><path class="cls-1" d="M11.29,47.52H3.77l0-21h7.48ZM7.51,16.25a4.27,4.27,0,1,1,0,8.54A4.14,4.14,0,0,1,3.18,20.5a4.12,4.12,0,0,1,4.33-4.25"/><path class="cls-1" d="M100.58,47.52H93.06l0-21h7.48ZM96.81,16.25a4.16,4.16,0,0,1,4.38,4.24,4.36,4.36,0,0,1-8.72,0,4.13,4.13,0,0,1,4.34-4.25"/><path class="cls-1" d="M29.6,34.51a3.56,3.56,0,0,0-3.45-2.43c-2,0-4.16,1.59-4.16,4.69s2.08,4.69,4.07,4.73a3.52,3.52,0,0,0,3.54-2.7h7.17C36,44.9,30.93,48,25.8,48c-5.66,0-11.33-3.67-11.33-11.19S20.3,25.49,25.83,25.48c5.09,0,10.09,3,10.89,9Z"/><path class="cls-1" d="M48.75,26.18h6.51v5.31H48.75v7.43c0,3.9,4.11,3.63,6.86,2.65l.62,5.62c-7.34,2-14.87.94-14.87-8.09V31.49L37.61,31V26.19h3.76l.84-6.59h6.55Z"/><path class="cls-1" d="M69.55,35.15a2.06,2.06,0,0,0,2.12-2c0-1.5-1.77-1.81-2.92-1.81a3.62,3.62,0,0,0-3.36,3,8.82,8.82,0,0,0,4.16.75M78.88,33c-.13,4.43-3.93,6.42-7.82,6.64a12.08,12.08,0,0,1-6-1.1c.49,2.83,3,3.72,6,3.58a19.41,19.41,0,0,0,7-1.68l.31,5.62a16.15,16.15,0,0,1-7.74,1.86c-7.35.36-12.57-3-12.79-10.66s5.3-11.5,10.79-11.73C73.57,25.42,79,27.32,78.88,33"/><path class="cls-1" d="M80.66,43.41a4,4,0,0,1,4.06-4.19,3.9,3.9,0,0,1,4,4.19,4,4,0,1,1-8.07,0Z"/><path class="cls-1" d="M115.17,24.4c-7.08,0-11.76,4.55-11.76,11.67s5,11.36,11.4,11.36c5.9,0,11.63-3.69,11.63-11.76C126.44,29,121.93,24.4,115.17,24.4Zm-.27,16.1c-2.29,0-3.92-1.94-3.92-4.56s1.63-4.6,4-4.6,3.91,1.88,3.91,4.6S117.28,40.5,114.9,40.5Z"/><polygon class="cls-2" points="139.59 23.81 148.01 20.19 148.04 36.53 139.62 40.15 139.59 23.81"/><polygon class="cls-3" points="126.05 20.16 134.47 16.57 148.01 20.19 139.59 23.81 126.05 20.16"/><polygon class="cls-4" points="154.83 17.24 163.26 13.61 163.28 29.95 154.86 33.57 154.83 17.24"/><polygon class="cls-5" points="141.29 13.58 149.71 9.99 163.26 13.62 154.83 17.24 141.29 13.58"/><polygon class="cls-6" points="170.07 10.74 178.5 7.12 178.53 23.45 170.1 27.07 170.07 10.74"/><polygon class="cls-7" points="156.53 7.08 164.95 3.5 178.5 7.12 170.07 10.74 156.53 7.08"/></svg>
