<svg id="Layer_1" data-name="Layer 1" xmlns="http://www.w3.org/2000/svg" viewBox="0 0 187 87"><defs><style>.cls-1{fill:#706f8d;}.cls-2{fill:#e86e71;}.cls-3{fill:#ec7780;}.cls-4{fill:#bed7f0;}.cls-5{fill:#cfe9fa;}.cls-6{fill:#8acdd5;}.cls-7{fill:#98d2da;}</style></defs><title>ICTE Base</title><path class="cls-1" d="M26.92,73.74H16.83l0-28.2h10Zm-5.07-42a5.73,5.73,0,1,1,0,11.46A5.54,5.54,0,0,1,16,37.47a5.54,5.54,0,0,1,5.81-5.71"/><path class="cls-1" d="M51.49,56.27A4.76,4.76,0,0,0,46.86,53c-2.73.06-5.58,2.14-5.58,6.29s2.8,6.3,5.47,6.35A4.74,4.74,0,0,0,51.5,62h9.61c-1,8.19-7.83,12.29-14.71,12.29-7.6,0-15.21-4.92-15.21-15S39,44.16,46.44,44.16c6.83,0,13.54,4,14.61,12.11Z"/><path class="cls-1" d="M77.2,45.1h8.72v7.13H77.2v10c0,5.22,5.53,4.86,9.21,3.55l.83,7.54C77.39,76,67.29,74.55,67.29,62.44V52.23l-5-.66V45.1h5.05l1.12-8.85h8.79Z"/><path class="cls-1" d="M105.11,57.14A2.77,2.77,0,0,0,108,54.46c0-2-2.37-2.43-3.91-2.43a4.87,4.87,0,0,0-4.51,4.1,12.16,12.16,0,0,0,5.58,1m12.52-2.86c-.17,5.94-5.28,8.61-10.5,8.91a16.26,16.26,0,0,1-8-1.48c.66,3.8,4,5,8.08,4.8a25.69,25.69,0,0,0,9.32-2.26l.42,7.54c-3.27,1.91-6.59,2.32-10.39,2.5-9.86.48-16.86-4.08-17.17-14.3s7.12-15.44,14.48-15.74c6.65-.18,14,2.37,13.78,10"/><polygon class="cls-2" points="125.87 40.17 136.71 35.51 136.74 56.53 125.91 61.19 125.87 40.17"/><polygon class="cls-3" points="108.45 35.47 119.28 30.85 136.71 35.51 125.87 40.17 108.45 35.47"/><polygon class="cls-4" points="145.48 31.71 156.32 27.05 156.35 48.07 145.51 52.73 145.48 31.71"/><polygon class="cls-5" points="128.06 27.01 138.89 22.39 156.32 27.05 145.48 31.71 128.06 27.01"/><polygon class="cls-6" points="165.09 23.35 175.93 18.69 175.96 39.71 165.12 44.37 165.09 23.35"/><polygon class="cls-7" points="147.66 18.65 158.5 14.03 175.93 18.69 165.09 23.35 147.66 18.65"/><polygon class="cls-2" points="125.87 40.17 136.71 35.51 136.74 56.53 125.91 61.19 125.87 40.17"/><polygon class="cls-3" points="108.45 35.47 119.28 30.85 136.71 35.51 125.87 40.17 108.45 35.47"/><polygon class="cls-4" points="145.48 31.71 156.32 27.05 156.35 48.07 145.51 52.73 145.48 31.71"/><polygon class="cls-5" points="128.06 27.01 138.89 22.39 156.32 27.05 145.48 31.71 128.06 27.01"/><polygon class="cls-6" points="165.09 23.35 175.93 18.69 175.96 39.71 165.12 44.37 165.09 23.35"/><polygon class="cls-7" points="147.66 18.65 158.5 14.03 175.93 18.69 165.09 23.35 147.66 18.65"/></svg>
