<svg id="Layer_1" data-name="Layer 1" xmlns="http://www.w3.org/2000/svg" viewBox="0 0 169 48"><defs><style>.cls-1{fill:#706f8d;}</style></defs><title>ICTE Base</title><path class="cls-1" d="M13.49,11V37H7.6V11Z"/><path class="cls-1" d="M37.62,36.24A16.73,16.73,0,0,1,31,37.35c-9,0-13.58-5.58-13.58-13,0-8.85,6.31-13.77,14.16-13.77a15.3,15.3,0,0,1,6.39,1.15l-1.2,4.66a12.62,12.62,0,0,0-4.92-1c-4.66,0-8.28,2.81-8.28,8.58,0,5.19,3.08,8.46,8.32,8.46a14.64,14.64,0,0,0,4.88-.84Z"/><path class="cls-1" d="M47,16H40V11H60V16H52.89V37H47Z"/><path class="cls-1" d="M78.52,26H69v6.16H79.63V37H63.09V11h16v4.81H69v5.39h9.55Z"/><path class="cls-1" d="M91.79,11.38a32.23,32.23,0,0,1,6.12-.54c3.35,0,5.5.58,7.12,1.88a5.45,5.45,0,0,1,2.15,4.58A6.15,6.15,0,0,1,102.8,23v.08a6.67,6.67,0,0,1,5.34,6.5,7,7,0,0,1-2.19,5.2c-1.81,1.65-4.73,2.42-9,2.42a38.1,38.1,0,0,1-5.19-.31ZM95.14,22h3c3.54,0,5.62-1.85,5.62-4.35,0-3-2.31-4.23-5.7-4.23a14,14,0,0,0-3,.23Zm0,12.43a18.6,18.6,0,0,0,2.81.15c3.46,0,6.65-1.27,6.65-5,0-3.54-3-5-6.69-5H95.14Z"/><path class="cls-1" d="M122.84,37l-.27-2.35h-.11a7,7,0,0,1-5.7,2.77A5.3,5.3,0,0,1,111.07,32c0-4.5,4-7,11.19-6.92v-.39c0-1.54-.42-4.31-4.23-4.31a9.27,9.27,0,0,0-4.85,1.39l-.77-2.24a11.56,11.56,0,0,1,6.12-1.65c5.7,0,7.08,3.89,7.08,7.62v7a26.35,26.35,0,0,0,.31,4.47Zm-.5-9.51c-3.69-.07-7.89.58-7.89,4.2a3,3,0,0,0,3.2,3.23,4.64,4.64,0,0,0,4.5-3.12,3.65,3.65,0,0,0,.19-1.07Z"/><path class="cls-1" d="M130.61,33.51a8.92,8.92,0,0,0,4.47,1.34c2.46,0,3.61-1.23,3.61-2.77s-1-2.5-3.46-3.42c-3.35-1.2-4.93-3-4.93-5.28,0-3,2.43-5.46,6.43-5.46a9.35,9.35,0,0,1,4.58,1.15l-.85,2.47a7.14,7.14,0,0,0-3.81-1.08c-2,0-3.11,1.15-3.11,2.54s1.11,2.23,3.54,3.16C140.31,27.39,142,29,142,31.77c0,3.27-2.53,5.58-7,5.58a10.58,10.58,0,0,1-5.23-1.27Z"/><path class="cls-1" d="M148.2,28.27c.07,4.58,3,6.47,6.38,6.47a12.21,12.21,0,0,0,5.16-1l.58,2.43a15.11,15.11,0,0,1-6.2,1.15c-5.73,0-9.16-3.77-9.16-9.39s3.31-10,8.74-10c6.08,0,7.7,5.35,7.7,8.77a12.12,12.12,0,0,1-.12,1.58Zm9.92-2.42c0-2.16-.88-5.51-4.69-5.51-3.43,0-4.93,3.16-5.2,5.51Z"/></svg>
