<svg id="Capa_1" data-name="Capa 1" xmlns="http://www.w3.org/2000/svg" viewBox="0 0 500 500"><defs><style>.cls-1{fill:#ea6f71;}.cls-2{fill:#ef7883;}.cls-3{fill:#c0d9f2;}.cls-4{fill:#d1ebfc;}.cls-5{fill:#8ccfd7;}.cls-6{fill:#9bd4dc;}</style></defs><title>Mesa de trabajo 1 copia100</title><polygon class="cls-1" points="147.61 266.03 215.56 236.83 215.77 368.61 147.82 397.81 147.61 266.03"/><polygon class="cls-2" points="38.36 236.57 106.31 207.64 215.56 236.83 147.61 266.03 38.36 236.57"/><polygon class="cls-3" points="270.55 213 338.5 183.79 338.7 315.57 270.76 344.78 270.55 213"/><polygon class="cls-4" points="161.3 183.54 229.25 154.6 338.5 183.8 270.55 213 161.3 183.54"/><polygon class="cls-5" points="393.49 160.59 461.43 131.38 461.64 263.16 393.7 292.36 393.49 160.59"/><polygon class="cls-6" points="284.23 131.13 352.18 102.19 461.43 131.39 393.49 160.59 284.23 131.13"/></svg>