<svg id="Capa_1" data-name="Capa 1" xmlns="http://www.w3.org/2000/svg" viewBox="0 0 19.08333 18.37654"><title>ICTE Base</title><path d="M9.54167,1.18827a8,8,0,1,0,8,8A7.99992,7.99992,0,0,0,9.54167,1.18827Zm-1.98816,12H5.73405V7.00565H7.55351ZM6.63737,6.0955a.95826.95826,0,1,1,0-1.90723.95826.95826,0,1,1,0,1.90723Zm8.04639,7.09277H12.86369V9.58573c0-.897-.23535-1.17138-.755-1.17138a1.5521,1.5521,0,0,0-1.13952.59814v4.17578H9.1497V7.00565h1.48523l.12427.78565h.04956a2.81954,2.81954,0,0,1,1.96862-.93506c1.3368,0,1.90638.94727,1.90638,2.49316Z" style="fill:#5687a2"/></svg>
