<svg id="Layer_1" data-name="Layer 1" xmlns="http://www.w3.org/2000/svg" viewBox="0 0 29 31"><defs><style>.cls-1{fill:#fff;}</style></defs><title>ICTE Base</title><path class="cls-1" d="M23,13.66h-1.9a6.49,6.49,0,0,0-.68-1.61l1.42-1.4a1.07,1.07,0,0,0,0-1.51L20.72,8A1,1,0,0,0,20,7.72a1,1,0,0,0-.75.31L17.75,9.49a7.18,7.18,0,0,0-1.41-.57V7A1.07,1.07,0,0,0,15.28,6H13.72A1.07,1.07,0,0,0,12.65,7V8.92a6.8,6.8,0,0,0-1.35.54L9.84,8a1.07,1.07,0,0,0-.76-.31,1.09,1.09,0,0,0-.75.3l-1.1,1.1a1.07,1.07,0,0,0,0,1.51L8.63,12a6.69,6.69,0,0,0-.71,1.65H6A1.06,1.06,0,0,0,5,14.72v1.56A1.08,1.08,0,0,0,6,17.35H7.91a6.83,6.83,0,0,0,.55,1.35L7.18,20a1.05,1.05,0,0,0,0,1.5l1.09,1.11a1.07,1.07,0,0,0,1.51,0L11,21.37a6.69,6.69,0,0,0,1.65.71V24A1.07,1.07,0,0,0,13.72,25h1.55A1.08,1.08,0,0,0,16.35,24v-1.9A6.27,6.27,0,0,0,18,21.4l1.21,1.22a1.07,1.07,0,0,0,.76.31,1.09,1.09,0,0,0,.75-.3l1.1-1.1a1,1,0,0,0,.32-.75,1.07,1.07,0,0,0-.31-.76l-1.27-1.27a6.13,6.13,0,0,0,.57-1.41H23A1.06,1.06,0,0,0,24,16.28V14.73A1.07,1.07,0,0,0,23,13.66ZM14.5,19.14a3.64,3.64,0,1,1,3.64-3.64A3.65,3.65,0,0,1,14.5,19.14Z"/></svg>
