<svg id="Layer_1" data-name="Layer 1" xmlns="http://www.w3.org/2000/svg" viewBox="0 0 47 47"><defs><style>.cls-1{fill:#fff;}</style></defs><title>ICTE Base</title><path class="cls-1" d="M39.39,20.05H35.84a12.48,12.48,0,0,0-1.27-3l2.65-2.64A2,2,0,0,0,37.81,13a2,2,0,0,0-.58-1.42L35.17,9.5a2,2,0,0,0-2.83,0l-2.75,2.74A13.32,13.32,0,0,0,27,11.16V7.61a2,2,0,0,0-2-2H22a2,2,0,0,0-2,2v3.55a11.84,11.84,0,0,0-2.54,1L14.76,9.42a2,2,0,0,0-2.83,0L9.86,11.46a2,2,0,0,0,0,2.83L12.49,17A12.6,12.6,0,0,0,11.16,20H7.61a2,2,0,0,0-2,2V25a2,2,0,0,0,2,2h3.54a13,13,0,0,0,1,2.54L9.78,31.87a2,2,0,0,0,0,2.83l2.05,2.07a2,2,0,0,0,2.83,0l2.29-2.27A12.89,12.89,0,0,0,20,35.84v3.55a2,2,0,0,0,2,2H25a2,2,0,0,0,2-2V35.85a13.3,13.3,0,0,0,3-1.28l2.26,2.28a2,2,0,0,0,2.83,0l2.07-2a2,2,0,0,0,0-2.83l-2.37-2.39A12.7,12.7,0,0,0,35.84,27h3.55a2,2,0,0,0,2-2V22.05A2,2,0,0,0,39.39,20.05ZM23.49,30.32a6.82,6.82,0,1,1,6.83-6.82A6.83,6.83,0,0,1,23.49,30.32Z"/></svg>
