<svg xmlns="http://www.w3.org/2000/svg" xmlns:xlink="http://www.w3.org/1999/xlink" viewBox="0 0 130 130"><defs><style>.cls-1{isolation:isolate;}.cls-2{opacity:0.3;mix-blend-mode:multiply;}.cls-3{fill:url(#linear-gradient);}.cls-4{fill:#fff;}</style><linearGradient id="linear-gradient" x1="65" y1="120.73" x2="65" y2="9.27" gradientUnits="userSpaceOnUse"><stop offset="0" stop-color="gray"/><stop offset="1" stop-color="#4d4d4d"/></linearGradient></defs><title>ICTE Base</title><g class="cls-1"><g id="Layer_1" data-name="Layer 1"><g class="cls-2"><path d="M120.73,66.74A55.73,55.73,0,1,1,65,11,55.5,55.5,0,0,1,120.73,66.74Z"/></g><path class="cls-3" d="M120.73,65A55.73,55.73,0,1,1,65,9.27,55.48,55.48,0,0,1,120.73,65Z"/><path class="cls-4" d="M95.72,48.53h0a14,14,0,0,1-14-14h0a6.35,6.35,0,1,0-12.7,0h0a14,14,0,0,1-13.79,14H55a6.35,6.35,0,1,0,0,12.7h0A14,14,0,0,1,69,74.76c0,.16,0,.33,0,.49h0a14,14,0,0,1-14,14h0l-.41,0a14,14,0,0,1-13.63-14h0a6.34,6.34,0,1,0-6.33,6.35h0a14,14,0,0,1,14,14h0v0a6.37,6.37,0,0,0,12.73,0h0a14,14,0,0,1,14-14h0a6.36,6.36,0,1,0,0-12.71h0a14,14,0,0,1-14-13.56c0-.15,0-.3,0-.46h0a14,14,0,0,1,28,0h0a6.36,6.36,0,1,0,6.37-6.34"/><path class="cls-4" d="M48.3,34.4h0a14,14,0,0,1-14,14h0a6.35,6.35,0,0,0,0,12.7h0a14,14,0,0,1,14,14h0a6.35,6.35,0,1,0,6.35-6.31h0a14,14,0,0,1,0-28h0v0h0A6.34,6.34,0,1,0,48.3,34.4Z"/></g></g></svg>
