<svg xmlns="http://www.w3.org/2000/svg" xmlns:xlink="http://www.w3.org/1999/xlink" viewBox="0 0 130 130"><defs><style>.cls-1{isolation:isolate;}.cls-2{opacity:0.3;mix-blend-mode:multiply;}.cls-3{fill:url(#linear-gradient);}.cls-4{fill:#fff;}</style><linearGradient id="linear-gradient" x1="65" y1="9.27" x2="65" y2="120.73" gradientTransform="translate(113.33 -13.2) rotate(76.72)" gradientUnits="userSpaceOnUse"><stop offset="0" stop-color="#f97121"/><stop offset="1" stop-color="#f9a721"/></linearGradient></defs><title>ICTE Base</title><g class="cls-1"><g id="Layer_1" data-name="Layer 1"><g class="cls-2"><circle cx="65" cy="66.74" r="55.73" transform="translate(-14.89 114.67) rotate(-76.72)"/></g><circle class="cls-3" cx="65" cy="65" r="55.73" transform="translate(-13.2 113.33) rotate(-76.72)"/><path class="cls-4" d="M95.63,72.31a10.62,10.62,0,0,0-5.37-8.12,41.75,41.75,0,0,0-4.63-2.06c.19-.13.31-.25.44-.32,7.81-4,7.12-16.06,1.44-20.18a20.69,20.69,0,0,0-7.57-3.38c-1.93-.44-3.87-.75-5.87-1.06,0-3.5.06-8.31.06-12.19H66.88c-.06,3.81-.06,8.5-.12,11.94H60.88c0-3.44.06-8.13.06-11.94H53.63c-.06,3.88-.06,8.69-.12,12.13-5-.07-9.81-.07-14.81-.13,0,2.69-.07,5.19-.07,7.81,1.07,0,2,0,2.88.07s1.87,0,2.75.06c2.56.19,3.87,1.62,3.87,4.12C48.07,59.5,48,70,47.82,80.44c0,2.31-1,3.18-3.25,3.18H39.7c-.5,2.94-1,5.75-1.5,8.69L53,92.5c0,3.75-.06,8.5-.06,12.44h7.31c.06-3.94.06-8.57.12-12.25l5.88.18c0,3.75-.07,8.32-.07,12.13h7.32c.06-3.94.06-8.56.12-12.19.25-.06.44-.06.63-.12,3.5-.57,7.06-.88,10.43-1.69a13.8,13.8,0,0,0,9.82-8.06A19.88,19.88,0,0,0,95.63,72.31ZM60.94,45.56c4.57,0,9-.37,13.13,1.5A6,6,0,0,1,78,53.19a6.3,6.3,0,0,1-4.75,5.87c-4,1.32-8.19,1.25-12.5,1.07C60.88,55.38,60.88,50.63,60.94,45.56Zm15.94,36.5c-4.06,1.81-8.31,1.81-12.62,1.88-1.19,0-2.38-.07-3.69-.07.06-5.43.12-10.75.19-16.18,5.56,0,11.06-.44,16.25,1.87a6.52,6.52,0,0,1,4.25,6.31C81.26,78.94,79.57,80.87,76.88,82.06Z"/></g></g></svg>
