<svg xmlns="http://www.w3.org/2000/svg" xmlns:xlink="http://www.w3.org/1999/xlink" viewBox="0 0 130 130"><defs><style>.cls-1{isolation:isolate;}.cls-2{opacity:0.3;mix-blend-mode:multiply;}.cls-3{fill:url(#linear-gradient);}.cls-4{fill:#fff;}</style><linearGradient id="linear-gradient" x1="65" y1="9.27" x2="65" y2="120.73" gradientTransform="translate(113.33 -13.2) rotate(76.72)" gradientUnits="userSpaceOnUse"><stop offset="0" stop-color="#f97121"/><stop offset="1" stop-color="#f9a721"/></linearGradient></defs><title>ICTE Base</title><g class="cls-1"><g id="Layer_1" data-name="Layer 1"><g class="cls-2"><circle cx="65" cy="66.74" r="55.73" transform="translate(-14.89 114.67) rotate(-76.72)"/></g><circle class="cls-3" cx="65" cy="65" r="55.73" transform="translate(-13.2 113.33) rotate(-76.72)"/><path class="cls-4" d="M65,23.89a41.37,41.37,0,1,0,41.37,41.36A41.37,41.37,0,0,0,65,23.89ZM65,97.1A31.85,31.85,0,1,1,96.85,65.25,31.85,31.85,0,0,1,65,97.1Z"/><path class="cls-4" d="M51.21,79.4l1.59-3.19H71.89a4.77,4.77,0,0,0,4.78-4.77h0a4.77,4.77,0,0,0-4.78-4.77H56V63.49H71.89a8,8,0,0,1,8,7.95h0a8,8,0,0,1-8,8Z"/><path class="cls-4" d="M71.89,80.28H49.78l2.48-5H71.89a3.89,3.89,0,1,0,0-7.78H55.1V62.6H71.89a8.84,8.84,0,1,1,0,17.68ZM52.64,78.51H71.89a7.07,7.07,0,1,0,0-14.14h-15v1.41h15a5.66,5.66,0,0,1,0,11.32H53.35Z"/><path class="cls-4" d="M51.21,50.58l1.59,3.18h17a4.78,4.78,0,0,1,4.78,4.78h0a4.78,4.78,0,0,1-4.78,4.77H57.58v3.18H69.77a8,8,0,0,0,8-7.95h0a8,8,0,0,0-8-8Z"/><path class="cls-4" d="M69.77,67.37H56.69v-5H69.77a3.89,3.89,0,1,0,0-7.77H52.26L49.78,49.7h20a8.84,8.84,0,1,1,0,17.67ZM58.46,65.61H69.77a7.08,7.08,0,0,0,0-14.15H52.64l.71,1.42H69.77a5.66,5.66,0,1,1,0,11.31H58.46Z"/><rect class="cls-4" x="55.98" y="50.76" width="3.18" height="28.64"/><path class="cls-4" d="M60.05,80.28H55.1V49.87h4.95Zm-3.18-1.77h1.41V51.64H56.87Z"/><rect class="cls-4" x="59.87" y="45.81" width="3.18" height="6.36"/><path class="cls-4" d="M63.5,52.61H59.43V45.37H63.5Zm-3.18-.88h2.29V46.25H60.32Z"/><rect class="cls-4" x="66.77" y="45.81" width="3.18" height="6.36"/><path class="cls-4" d="M70.39,52.61H66.33V45.37h4.06Zm-3.18-.88h2.3V46.25h-2.3Z"/><rect class="cls-4" x="59.87" y="77.63" width="3.18" height="6.36"/><path class="cls-4" d="M63.5,84.43H59.43V77.19H63.5Zm-3.18-.88h2.29V78.07H60.32Z"/><rect class="cls-4" x="66.77" y="77.63" width="3.18" height="6.36"/><path class="cls-4" d="M70.39,84.43H66.33V77.19h4.06Zm-3.18-.88h2.3V78.07h-2.3Z"/><path class="cls-4" d="M65,93.44A28.19,28.19,0,1,1,93.19,65.25,28.22,28.22,0,0,1,65,93.44Zm0-53.55A25.37,25.37,0,1,0,90.37,65.25,25.4,25.4,0,0,0,65,39.89Z"/></g></g></svg>
