<svg xmlns="http://www.w3.org/2000/svg" xmlns:xlink="http://www.w3.org/1999/xlink" viewBox="0 0 130 130"><defs><style>.cls-1{isolation:isolate;}.cls-2{opacity:0.3;mix-blend-mode:multiply;}.cls-3{fill:url(#linear-gradient);}.cls-4{fill:#fff;}</style><linearGradient id="linear-gradient" x1="65" y1="9.27" x2="65" y2="120.73" gradientTransform="translate(113.33 -13.2) rotate(76.72)" gradientUnits="userSpaceOnUse"><stop offset="0.02" stop-color="#002ed0"/><stop offset="1" stop-color="#0076d0"/></linearGradient></defs><title>ICTE Base</title><g class="cls-1"><g id="Layer_1" data-name="Layer 1"><g class="cls-2"><circle cx="65" cy="66.74" r="55.73" transform="translate(-14.89 114.67) rotate(-76.72)"/></g><circle class="cls-3" cx="65" cy="65" r="55.73" transform="translate(-13.2 113.33) rotate(-76.72)"/><path class="cls-4" d="M77.18,43.41,78.73,29l-5.54-.59L71.68,42.36l-4.46-.83,1.5-13.9L63.17,27,61.72,40.5c-9.45-1.71-17.92-3.21-17.92-3.21l-7.53,8.55s30.44,4.8,36.52,6.07,10.4,9.1,5.85,16.74S66.08,83.42,51.42,82.45l14-27.7-13.2-2.46L34.41,86a75,75,0,0,0,18.27,2.3L51.31,101l5.54.6,1.44-13.36c1.48,0,3-.14,4.55-.26l-1.55,14.41,5.54.59,1.69-15.69c17.56-3.21,26.48-19.16,27-26.66.61-7.71-5.94-14.65-18.38-17.2"/></g></g></svg>
