<svg xmlns="http://www.w3.org/2000/svg" xmlns:xlink="http://www.w3.org/1999/xlink" viewBox="0 0 130 130"><defs><style>.cls-1{isolation:isolate;}.cls-2{opacity:0.3;mix-blend-mode:multiply;}.cls-3{fill:url(#linear-gradient);}.cls-4{fill:#fff;}</style><linearGradient id="linear-gradient" x1="65" y1="9.27" x2="65" y2="120.73" gradientTransform="translate(113.33 -13.2) rotate(76.72)" gradientUnits="userSpaceOnUse"><stop offset="0" stop-color="#227db2"/><stop offset="1" stop-color="#22a8b2"/></linearGradient></defs><title>ICTE Base</title><g class="cls-1"><g id="Layer_1" data-name="Layer 1"><g class="cls-2"><circle cx="65" cy="66.74" r="55.73" transform="translate(-14.89 114.67) rotate(-76.72)"/></g><circle class="cls-3" cx="65" cy="65" r="55.73" transform="translate(-13.2 113.33) rotate(-76.72)"/><path class="cls-4" d="M56.84,96.91a3.46,3.46,0,0,1-2.74-1.35L38.86,75.7H32.67a3.46,3.46,0,0,1,0-6.91h7.89a3.44,3.44,0,0,1,2.74,1.35L56.18,86.92,76.43,45.09a3.44,3.44,0,0,1,3-2l20.23-.49a3.45,3.45,0,1,1,.17,6.9L81.73,50,60,95A3.47,3.47,0,0,1,57.2,96.9Z"/></g></g></svg>
