<svg xmlns="http://www.w3.org/2000/svg" xmlns:xlink="http://www.w3.org/1999/xlink" viewBox="0 0 130 130"><defs><style>.cls-1{isolation:isolate;}.cls-2{opacity:0.3;mix-blend-mode:multiply;}.cls-3{fill:url(#linear-gradient);}.cls-4{fill:#fff;}</style><linearGradient id="linear-gradient" x1="65" y1="9.27" x2="65" y2="120.73" gradientTransform="translate(113.33 -13.2) rotate(76.72)" gradientUnits="userSpaceOnUse"><stop offset="0" stop-color="#764cf0"/><stop offset="0.98" stop-color="#8690e1"/></linearGradient></defs><title>ICTE Base</title><g class="cls-1"><g id="Layer_1" data-name="Layer 1"><g class="cls-2"><circle cx="65" cy="66.74" r="55.73" transform="translate(-14.89 114.67) rotate(-76.72)"/></g><circle class="cls-3" cx="65" cy="65" r="55.73" transform="translate(-13.2 113.33) rotate(-76.72)"/><polygon class="cls-4" points="65.92 82.53 65.92 99.63 87.13 69.81 65.92 82.53"/><polygon class="cls-4" points="86.32 64.3 65.92 30.38 65.92 55.05 86.32 64.3"/><polygon class="cls-4" points="65.92 56.99 65.92 78.04 86.15 66.19 65.92 56.99"/><polygon class="cls-4" points="43.74 64.3 64.13 30.38 64.13 55.05 43.74 64.3"/><polygon class="cls-4" points="64.13 56.99 64.13 78.04 43.85 66.19 64.13 56.99"/><polygon class="cls-4" points="64.08 82.53 64.08 99.63 42.87 69.81 64.08 82.53"/></g></g></svg>
