<svg xmlns="http://www.w3.org/2000/svg" xmlns:xlink="http://www.w3.org/1999/xlink" viewBox="0 0 130 130"><defs><style>.cls-1{isolation:isolate;}.cls-2{opacity:0.3;mix-blend-mode:multiply;}.cls-3{fill:url(#linear-gradient);}.cls-4{fill:#fff;}</style><linearGradient id="linear-gradient" x1="65" y1="120.73" x2="65" y2="9.27" gradientTransform="translate(113.33 -13.2) rotate(76.72)" gradientUnits="userSpaceOnUse"><stop offset="0" stop-color="#a0ca21"/><stop offset="1" stop-color="#25ca21"/></linearGradient></defs><title>ICTE Base</title><g class="cls-1"><g id="Layer_1" data-name="Layer 1"><g class="cls-2"><circle cx="65" cy="66.74" r="55.73" transform="translate(-14.89 114.67) rotate(-76.72)"/></g><circle class="cls-3" cx="65" cy="65" r="55.73" transform="translate(-13.2 113.33) rotate(-76.72)"/><path class="cls-4" d="M58.2,54.45H93.55v7.92H58.2Z"/><path class="cls-4" d="M93.55,67.64H58.2v7.92H84.46V83C80.94,86,74,87.59,74,87.59,53.8,91.11,47.35,73.81,47.35,73.81c-5.87-20,8.36-27.87,8.36-27.87,17.45-10.56,30.51,2.93,30.51,2.93l6.16-6c-10.27-11.73-26.11-9.53-26.11-9.53-25.67,2.64-29,24.2-29,24.2C33,74.83,44.71,86.71,44.71,86.71c21.41,21.71,49,1.76,49,1.76V67.64Z"/></g></g></svg>
