<svg xmlns="http://www.w3.org/2000/svg" xmlns:xlink="http://www.w3.org/1999/xlink" viewBox="0 0 130 130"><defs><style>.cls-1{isolation:isolate;}.cls-2{opacity:0.3;mix-blend-mode:multiply;}.cls-3{fill:url(#linear-gradient);}.cls-4{fill:#fff;}</style><linearGradient id="linear-gradient" x1="65" y1="9.27" x2="65" y2="120.73" gradientTransform="translate(113.33 -13.2) rotate(76.72)" gradientUnits="userSpaceOnUse"><stop offset="0" stop-color="#e45e83"/><stop offset="0.06" stop-color="#e56083"/><stop offset="0.6" stop-color="#ec7283"/><stop offset="1" stop-color="#ef7883"/></linearGradient></defs><title>ICTE Base</title><g class="cls-1"><g id="Layer_1" data-name="Layer 1"><g class="cls-2"><circle cx="65" cy="66.74" r="55.73" transform="translate(-14.89 114.67) rotate(-76.72)"/></g><circle class="cls-3" cx="65" cy="65" r="55.73" transform="translate(-13.2 113.33) rotate(-76.72)"/><polygon class="cls-4" points="80.52 39.31 80.52 58.58 49.48 58.58 49.48 39.31 45.2 39.31 45.2 90.69 49.48 90.69 49.48 62.86 62.32 62.86 62.32 82.13 66.61 82.13 66.61 62.86 80.52 62.86 80.52 90.69 84.8 90.69 84.8 39.31 80.52 39.31"/><polygon class="cls-4" points="70.89 86.6 58.04 86.6 58.04 68.21 53.76 68.21 53.76 90.69 75.17 90.69 75.17 68.21 70.89 68.21 70.89 86.6"/><path class="cls-4" d="M65,108.59A43.59,43.59,0,1,1,108.59,65,43.63,43.63,0,0,1,65,108.59Zm0-85A41.45,41.45,0,1,0,106.45,65,41.49,41.49,0,0,0,65,23.55Z"/></g></g></svg>
