<svg xmlns="http://www.w3.org/2000/svg" xmlns:xlink="http://www.w3.org/1999/xlink" viewBox="0 0 130 130"><defs><style>.cls-1{isolation:isolate;}.cls-2{opacity:0.3;mix-blend-mode:multiply;}.cls-3{fill:url(#linear-gradient);}.cls-4{fill:#fff;}</style><linearGradient id="linear-gradient" x1="65" y1="120.73" x2="65" y2="9.27" gradientTransform="translate(113.33 -13.2) rotate(76.72)" gradientUnits="userSpaceOnUse"><stop offset="0" stop-color="#4d4d4d"/><stop offset="1" stop-color="#332724"/></linearGradient></defs><title>ICTE Base</title><g class="cls-1"><g id="Layer_1" data-name="Layer 1"><g class="cls-2"><circle cx="65" cy="66.74" r="55.73" transform="translate(-14.89 114.67) rotate(-76.72)"/></g><circle class="cls-3" cx="65" cy="65" r="55.73" transform="translate(-13.2 113.33) rotate(-76.72)"/><path class="cls-4" d="M77.28,34.44a4.14,4.14,0,0,1,4.36-4.08,4.27,4.27,0,0,1,4,4.25,4.16,4.16,0,0,1-8.32-.17Z"/><path class="cls-4" d="M86.11,89.06a4.08,4.08,0,0,1,4.13,4.13,4.16,4.16,0,1,1-4.13-4.13Z"/><path class="cls-4" d="M32.91,72.08a4.11,4.11,0,0,1-4.13-4.25,4,4,0,0,1,4.18-4,4.14,4.14,0,1,1-.05,8.27Z"/><path class="cls-4" d="M79,45.53A3.54,3.54,0,0,1,82.6,42a3.61,3.61,0,0,1,3.57,3.51A3.68,3.68,0,0,1,82.6,49.1,3.55,3.55,0,0,1,79,45.53Z"/><path class="cls-4" d="M41.85,57.87a3.59,3.59,0,0,1,3.62,3.51A3.63,3.63,0,0,1,41.91,65a3.56,3.56,0,0,1-3.57-3.57A3.5,3.5,0,0,1,41.85,57.87Z"/><path class="cls-4" d="M91.83,50.34a3.48,3.48,0,0,1-3.51-3.51,3.54,3.54,0,1,1,7.07,0A3.46,3.46,0,0,1,91.83,50.34Z"/><path class="cls-4" d="M76,92.28a3.59,3.59,0,0,1-3.57-3.56A3.63,3.63,0,0,1,76,85.15a3.59,3.59,0,0,1,3.57,3.57A3.63,3.63,0,0,1,76,92.28Z"/><path class="cls-4" d="M41.91,52.72a3.47,3.47,0,0,1-3.57,3.51,3.57,3.57,0,0,1,0-7.13A3.64,3.64,0,0,1,41.91,52.72Z"/><path class="cls-4" d="M70.15,99.64a3.54,3.54,0,0,1,0-7.07,3.55,3.55,0,0,1,3.57,3.56A3.51,3.51,0,0,1,70.15,99.64Z"/><path class="cls-4" d="M59.68,90.42a3,3,0,1,1,2.94,3.11A3,3,0,0,1,59.68,90.42Z"/><path class="cls-4" d="M93.75,56.17a3,3,0,1,1-3-3.05A3,3,0,0,1,93.75,56.17Z"/><path class="cls-4" d="M50,49A3,3,0,1,1,44,49a3,3,0,0,1,3-3A2.9,2.9,0,0,1,50,49Z"/><path class="cls-4" d="M53.57,57.7a3,3,0,1,1-3-3A3,3,0,0,1,53.57,57.7Z"/><path class="cls-4" d="M42.76,41.12a3,3,0,0,1,6.05.05,3,3,0,1,1-6.05-.05Z"/><path class="cls-4" d="M78.41,54.87a3,3,0,1,1,6.06,0,3,3,0,0,1-3.06,3A2.91,2.91,0,0,1,78.41,54.87Z"/><path class="cls-4" d="M68.45,80a3,3,0,0,1,3,3.06,3,3,0,0,1-3,3,3,3,0,0,1,0-6.06Z"/><path class="cls-4" d="M59.51,95.51a3,3,0,0,1-3,3,3,3,0,1,1,0-6.06A3,3,0,0,1,59.51,95.51Z"/><path class="cls-4" d="M98.11,62.06a3,3,0,1,1,3.11-3A3.06,3.06,0,0,1,98.11,62.06Z"/><path class="cls-4" d="M60.13,84.36a2.63,2.63,0,0,1-2.6,2.6,2.6,2.6,0,1,1,0-5.2A2.55,2.55,0,0,1,60.13,84.36Z"/><path class="cls-4" d="M54.92,45a2.56,2.56,0,0,1,2.61,2.61,2.64,2.64,0,0,1-2.61,2.6,2.61,2.61,0,0,1,0-5.21Z"/><path class="cls-4" d="M60.7,76.94a2.54,2.54,0,0,1,2.54-2.6,2.61,2.61,0,1,1-2.54,2.6Z"/><path class="cls-4" d="M51.36,91.94a2.58,2.58,0,1,1-.06-5.15,2.54,2.54,0,0,1,2.61,2.61A2.5,2.5,0,0,1,51.36,91.94Z"/><path class="cls-4" d="M81.24,62.46A2.53,2.53,0,0,1,78.7,65a2.6,2.6,0,1,1,0-5.2A2.52,2.52,0,0,1,81.24,62.46Z"/><path class="cls-4" d="M53.62,42.31A2.52,2.52,0,0,1,51,39.76a2.61,2.61,0,1,1,5.21-.06A2.57,2.57,0,0,1,53.62,42.31Z"/><path class="cls-4" d="M88,66.25a2.52,2.52,0,0,1-2.55-2.61A2.63,2.63,0,0,1,88,61a2.49,2.49,0,0,1,2.55,2.66A2.45,2.45,0,0,1,88,66.25Z"/><path class="cls-4" d="M58.38,58.89a2.58,2.58,0,0,1-2.55-2.6,2.64,2.64,0,0,1,2.66-2.55,2.58,2.58,0,1,1-.11,5.15Z"/><path class="cls-4" d="M95.39,69.13a2.6,2.6,0,1,1,2.66-2.43A2.52,2.52,0,0,1,95.39,69.13Z"/><path class="cls-4" d="M65.23,58.89A2.17,2.17,0,0,1,63,56.68a2.23,2.23,0,0,1,2.26-2.21,2.18,2.18,0,0,1,2.21,2.21A2.26,2.26,0,0,1,65.23,58.89Z"/><path class="cls-4" d="M89.51,72.25A2.26,2.26,0,0,1,91.71,70a2.18,2.18,0,0,1,2.21,2.21,2.21,2.21,0,1,1-4.41.06Z"/><path class="cls-4" d="M62.62,40.1a2.18,2.18,0,0,1-2.21,2.21,2.24,2.24,0,1,1,2.21-2.21Z"/><path class="cls-4" d="M62.4,70.89a2.21,2.21,0,1,1-2.21-2.21A2.12,2.12,0,0,1,62.4,70.89Z"/><path class="cls-4" d="M54.47,80.45a2.22,2.22,0,0,1-2.26-2.2,2.24,2.24,0,1,1,4.47-.06A2.19,2.19,0,0,1,54.47,80.45Z"/><path class="cls-4" d="M86.51,69.42a2.14,2.14,0,0,1-2.21,2.2,2.29,2.29,0,0,1-2.21-2.26,2.21,2.21,0,1,1,4.42.06Z"/><path class="cls-4" d="M75,65.91a2.1,2.1,0,0,1,2.2,2.21,2.13,2.13,0,0,1-2.2,2.2,2.26,2.26,0,0,1-2.27-2.2A2.19,2.19,0,0,1,75,65.91Z"/><path class="cls-4" d="M50.45,83.28a2.21,2.21,0,0,1-2.2,2.21A2.17,2.17,0,0,1,46,83.28,2.26,2.26,0,0,1,48.25,81,2.34,2.34,0,0,1,50.45,83.28Z"/><path class="cls-4" d="M61.72,50.17A2.17,2.17,0,0,1,59.51,48a2.35,2.35,0,0,1,2.26-2.27A2.23,2.23,0,0,1,64,48,2.26,2.26,0,0,1,61.72,50.17Z"/><path class="cls-4" d="M82,73.38a2,2,0,0,1-1.93,2,1.87,1.87,0,0,1-1.87-1.92,1.9,1.9,0,0,1,3.8-.06Z"/><path class="cls-4" d="M60.7,65.29a1.91,1.91,0,0,1-1.93,1.92,2.06,2.06,0,0,1-1.92-1.92,2,2,0,0,1,2-1.93A1.9,1.9,0,0,1,60.7,65.29Z"/><path class="cls-4" d="M46.89,75.81a1.84,1.84,0,0,1,1.87,1.93,2,2,0,0,1-1.93,1.92,2,2,0,0,1-1.92-2A1.82,1.82,0,0,1,46.89,75.81Z"/><path class="cls-4" d="M70.77,60.13a1.9,1.9,0,1,1,0-3.79,1.9,1.9,0,1,1,0,3.79Z"/><path class="cls-4" d="M67.26,47.63a1.86,1.86,0,0,1,1.87,1.92,1.93,1.93,0,1,1-3.85-.06A2,2,0,0,1,67.26,47.63Z"/><path class="cls-4" d="M54.92,72.64a2,2,0,0,1-1.86,2,2,2,0,0,1-1.93-2,1.86,1.86,0,0,1,1.93-1.86A1.81,1.81,0,0,1,54.92,72.64Z"/><path class="cls-4" d="M70.89,70.27a1.9,1.9,0,0,1-.06,3.79,1.88,1.88,0,0,1-1.93-1.93A1.91,1.91,0,0,1,70.89,70.27Z"/><path class="cls-4" d="M89.51,76.21a1.81,1.81,0,0,1-1.93,1.92,1.93,1.93,0,0,1,0-3.85A2,2,0,0,1,89.51,76.21Z"/><path class="cls-4" d="M66,39.76a1.82,1.82,0,0,1,1.87,1.87,1.9,1.9,0,1,1-3.8,0A1.86,1.86,0,0,1,66,39.76Z"/><path class="cls-4" d="M71.9,44.06a1.58,1.58,0,0,1-1.69,1.59A1.6,1.6,0,0,1,68.62,44a1.64,1.64,0,1,1,3.28.06Z"/><path class="cls-4" d="M45.13,72.7a1.6,1.6,0,0,1,1.64-1.59,1.67,1.67,0,0,1,1.65,1.7,1.73,1.73,0,0,1-1.65,1.64A1.67,1.67,0,0,1,45.13,72.7Z"/><path class="cls-4" d="M85,78.76a1.65,1.65,0,0,1-1.65,1.69,1.68,1.68,0,0,1-1.69-1.64,1.67,1.67,0,0,1,3.34,0Z"/><path class="cls-4" d="M54.59,67.78a1.65,1.65,0,0,1-1.65,1.64,1.7,1.7,0,0,1-1.64-1.7,1.65,1.65,0,0,1,3.29.06Z"/><path class="cls-4" d="M71.51,53.57a1.61,1.61,0,0,1-1.64-1.64,1.59,1.59,0,0,1,1.64-1.59A1.58,1.58,0,0,1,73.15,52,1.5,1.5,0,0,1,71.51,53.57Z"/><path class="cls-4" d="M75.92,74.34A1.56,1.56,0,0,1,77.51,76a1.67,1.67,0,0,1-1.7,1.7A1.6,1.6,0,0,1,74.22,76,1.71,1.71,0,0,1,75.92,74.34Z"/><path class="cls-4" d="M49,68.68a1.4,1.4,0,0,1-1.41,1.42,1.45,1.45,0,1,1,0-2.89A1.4,1.4,0,0,1,49,68.68Z"/><path class="cls-4" d="M80.79,80.11a1.4,1.4,0,0,1-1.41,1.42A1.48,1.48,0,0,1,78,80.11a1.45,1.45,0,0,1,1.47-1.41A1.35,1.35,0,0,1,80.79,80.11Z"/><path class="cls-4" d="M73.38,45.48a1.38,1.38,0,0,1,1.47,1.41,1.41,1.41,0,0,1-1.42,1.42A1.35,1.35,0,0,1,72,47,1.28,1.28,0,0,1,73.38,45.48Z"/></g></g></svg>
