<svg xmlns="http://www.w3.org/2000/svg" xmlns:xlink="http://www.w3.org/1999/xlink" viewBox="0 0 130 130"><defs><style>.cls-1{isolation:isolate;}.cls-2{opacity:0.3;mix-blend-mode:multiply;}.cls-3{fill:url(#linear-gradient);}.cls-4,.cls-5,.cls-6{fill:#fff;}.cls-5{fill-opacity:0.03;}.cls-6{fill-opacity:0.05;}</style><linearGradient id="linear-gradient" x1="65" y1="9.27" x2="65" y2="120.73" gradientTransform="translate(113.33 -13.2) rotate(76.72)" gradientUnits="userSpaceOnUse"><stop offset="0" stop-color="#540ca7"/><stop offset="1" stop-color="#6c49a7"/></linearGradient></defs><title>ICTE Base</title><g class="cls-1"><g id="Layer_1" data-name="Layer 1"><g class="cls-2"><circle cx="65" cy="66.74" r="55.73" transform="translate(-14.89 114.67) rotate(-76.72)"/></g><circle class="cls-3" cx="65" cy="65" r="55.73" transform="translate(-13.2 113.33) rotate(-76.72)"/><g id="layer1"><g id="g11669"><g id="g11643"><path id="rect11628" class="cls-4" d="M40.5,41H60.13L39.63,89.13H20Z"/><path id="rect11633" class="cls-4" d="M90.34,41H110L86.71,89.25H67.05Z"/><path id="rect11638" class="cls-4" d="M40.5,41H60.13L86.72,89.25H67.06Z"/></g><path id="path11656" class="cls-5" d="M39.63,89.13H20L60.11,41Z"/><path id="path11659" class="cls-6" d="M67.05,89.39H86.67L40.5,41,67.05,89.39Z"/><path id="path11661" class="cls-6" d="M67.05,89.39H86.67L60.11,41l6.94,48.41Z"/><path id="path11663" class="cls-6" d="M67.05,89.39H86.67l3.57-48.78L67.05,89.39Z"/><path id="path11665" class="cls-6" d="M67.05,89.39H86.67L110,41,67.05,89.39Z"/></g></g></g></g></svg>
