<svg xmlns="http://www.w3.org/2000/svg" xmlns:xlink="http://www.w3.org/1999/xlink" viewBox="0 0 130 130"><defs><style>.cls-1{isolation:isolate;}.cls-2{opacity:0.3;mix-blend-mode:multiply;}.cls-3{fill:url(#linear-gradient);}.cls-4{fill:#fff;}</style><linearGradient id="linear-gradient" x1="65" y1="9.27" x2="65" y2="120.73" gradientTransform="translate(113.33 -13.2) rotate(76.72)" gradientUnits="userSpaceOnUse"><stop offset="0" stop-color="#007c9d"/><stop offset="1" stop-color="#00a99d"/></linearGradient></defs><title>ICTE Base</title><g class="cls-1"><g id="Layer_1" data-name="Layer 1"><g class="cls-2"><circle cx="65" cy="66.74" r="55.73" transform="translate(-14.89 114.67) rotate(-76.72)"/></g><circle class="cls-3" cx="65" cy="65" r="55.73" transform="translate(-13.2 113.33) rotate(-76.72)"/><path class="cls-4" d="M29.3,66.71h8.12a3.39,3.39,0,1,1,0,6.77H29.3a3.39,3.39,0,1,1,0-6.77ZM82.13,54.18h20.33a3.39,3.39,0,0,1,0,6.77H82.13a3.39,3.39,0,0,1,0-6.77Z"/><path class="cls-4" d="M99.07,65.08V57.5a3.32,3.32,0,0,1,3.32-3.32h.13a3.32,3.32,0,0,1,3.32,3.32v7.58a3.32,3.32,0,0,1-3.32,3.32h-.13A3.28,3.28,0,0,1,99.07,65.08ZM39.46,54.85l18.29,12.2h6.09a3.39,3.39,0,1,1,0,6.77H55.71a3.29,3.29,0,0,1-2.91-1.69l.2.34L36.07,61H29.3a3.39,3.39,0,1,1,0-6.77h8.12a3.24,3.24,0,0,1,2.51,1.15m27.23-.48,19.17,12.2H92.7a3.42,3.42,0,0,1,3.52,3.39,3.46,3.46,0,0,1-3.52,3.38H84.17a3.5,3.5,0,0,1-3-1.69l.2.34L63.57,61h-7A3.43,3.43,0,0,1,53,57.56a3.47,3.47,0,0,1,3.53-3.38h8.53a3.5,3.5,0,0,1,2.64,1.15"/></g></g></svg>
