<svg xmlns="http://www.w3.org/2000/svg" xmlns:xlink="http://www.w3.org/1999/xlink" viewBox="0 0 130 130"><defs><style>.cls-1{isolation:isolate;}.cls-2{opacity:0.3;mix-blend-mode:multiply;}.cls-3{fill:url(#linear-gradient);}.cls-4{fill:#fff;}</style><linearGradient id="linear-gradient" x1="65" y1="9.27" x2="65" y2="120.73" gradientTransform="translate(113.33 -13.2) rotate(76.72)" gradientUnits="userSpaceOnUse"><stop offset="0.01" stop-color="#002937"/><stop offset="1" stop-color="#006837"/></linearGradient></defs><title>ICTE Base</title><g class="cls-1"><g id="Layer_1" data-name="Layer 1"><g class="cls-2"><circle cx="65" cy="66.74" r="55.73" transform="translate(-14.89 114.67) rotate(-76.72)"/></g><circle class="cls-3" cx="65" cy="65" r="55.73" transform="translate(-13.2 113.33) rotate(-76.72)"/><path class="cls-4" d="M46.78,52.05c1-5.37,2.09-10.73,3.14-16.09q8.05,0,16.11,0c4.94,0,9.89,0,14.82.35a53.81,53.81,0,0,1,8.66,1.26,14.28,14.28,0,0,1,7.67,4.6A13.81,13.81,0,0,1,100,49.75a15.8,15.8,0,0,1,0,4.45A23.82,23.82,0,0,1,95.6,66.55a22.21,22.21,0,0,1-8.54,6.82,35,35,0,0,1-11.68,3c-3,.28-6.11.21-9.16.22-4.3,0-8.59,0-12.89,0-1.56,7.75-3,15.54-4.47,23.31L37.6,99.78c2.53-13.34,5.18-26.67,7.82-40H38.73c.51-2.56,1-5.14,1.46-7.71,2.19,0,4.39,0,6.59,0M59.09,47c-.31,1.7-.66,3.38-1,5.08h16c-.49,2.57-1,5.14-1.45,7.72-5.36,0-10.73,0-16.09,0-.36,2-.81,3.92-1.11,5.91H74.17c3.4,0,7-.73,9.67-2.94a11.3,11.3,0,0,0,4.42-7.63,9.32,9.32,0,0,0-.55-3.92,6.17,6.17,0,0,0-4.28-3.49,45.64,45.64,0,0,0-8.89-.78c-5.15,0-10.31,0-15.45,0"/></g></g></svg>
