<svg xmlns="http://www.w3.org/2000/svg" xmlns:xlink="http://www.w3.org/1999/xlink" viewBox="0 0 130 130"><defs><style>.cls-1{isolation:isolate;}.cls-2{opacity:0.3;mix-blend-mode:multiply;}.cls-3{fill:url(#linear-gradient);}.cls-4{fill:#fff;}</style><linearGradient id="linear-gradient" x1="65" y1="9.27" x2="65" y2="120.73" gradientTransform="translate(113.33 -13.2) rotate(76.72)" gradientUnits="userSpaceOnUse"><stop offset="0" stop-color="#e34353"/><stop offset="1" stop-color="#ec6853"/></linearGradient></defs><title>ICTE Base</title><g class="cls-1"><g id="Layer_1" data-name="Layer 1"><g class="cls-2"><circle cx="65" cy="66.74" r="55.73" transform="translate(-14.89 114.67) rotate(-76.72)"/></g><circle class="cls-3" cx="65" cy="65" r="55.73" transform="translate(-13.2 113.33) rotate(-76.72)"/><path class="cls-4" d="M93.69,60.26,47.36,39.84,63.6,32.42a6.12,6.12,0,0,1,4.33.23c2.32,1,24,10.67,24,10.67a4.53,4.53,0,0,1,2,2.71C94.39,47.89,93.69,60.26,93.69,60.26Z"/><path class="cls-4" d="M37.69,44.48l52.6,23.13s2,.24,3.56,4.18L93.62,85.4,38.85,61.19s-1.7-1.39-1.63-2.94S37.69,44.48,37.69,44.48Z"/><path class="cls-4" d="M36.76,69.47,82.55,90l-16.4,7.35s-.92,1.23-3.94,0S38,86.33,38,86.33s-1.24-1-1.86-3.94.23-13.08.23-13.08S36.06,69.16,36.76,69.47Z"/></g></g></svg>
