<svg xmlns="http://www.w3.org/2000/svg" xmlns:xlink="http://www.w3.org/1999/xlink" viewBox="0 0 130 130"><defs><style>.cls-1{isolation:isolate;}.cls-2{opacity:0.3;mix-blend-mode:multiply;}.cls-3{fill:url(#linear-gradient);}.cls-4{fill:#fff;}</style><linearGradient id="linear-gradient" x1="65" y1="9.27" x2="65" y2="120.73" gradientTransform="translate(113.33 -13.2) rotate(76.72)" gradientUnits="userSpaceOnUse"><stop offset="0" stop-color="#195bd7"/><stop offset="1" stop-color="#1b9ed9"/></linearGradient></defs><title>ICTE Base</title><g class="cls-1"><g id="Layer_1" data-name="Layer 1"><g class="cls-2"><circle cx="65" cy="66.74" r="55.73" transform="translate(-14.89 114.67) rotate(-76.72)"/></g><circle class="cls-3" cx="65" cy="65" r="55.73" transform="translate(-13.2 113.33) rotate(-76.72)"/><path class="cls-4" d="M38.82,73.78c.41-.62.77-1.16,1.17-1.79l.67.4C49.1,77.82,57.58,83.25,66,88.72a1,1,0,0,0,1.3,0q12-7.8,24.18-15.52a2.58,2.58,0,0,0,1.4-2.47c0-1.12,0-2.24,0-3.54-.32.18-.59.31-.81.45C84,72.8,75.93,77.91,67.85,83.07a2.36,2.36,0,0,1-2.82.05c-8.21-5.25-16.42-10.5-24.68-15.66a5,5,0,0,1-2.6-4.76c.09-1.57,0-3.14,0-4.71a1.83,1.83,0,0,1,.9-1.66c8.88-5.87,17.85-11.71,26.78-17.54a3,3,0,0,1,1.12-.58,2.19,2.19,0,0,1,1.44.31Q81,46.8,94.1,55.12c1.34.85,1.25,2.29-.14,3.14l-20,12.65c-2,1.26-4,2.43-5.88,3.73a2.25,2.25,0,0,1-2.74,0c-8.16-5.16-16.42-10.32-24.63-15.48l-.76-.45c0,1.7,0,3.32,0,4.94a2.27,2.27,0,0,0,1.3,1.74L60.72,77.78c1.7,1.07,3.36,2.11,5,3.23a1,1,0,0,0,1.17,0q12.38-8,24.85-15.84a6,6,0,0,1,.68-.4A1.7,1.7,0,0,1,95,66.25q.08,2.63,0,5.25a4,4,0,0,1-2.15,3.41c-5.47,3.5-11,7-16.42,10.54-2.87,1.84-5.79,3.68-8.66,5.56a1.88,1.88,0,0,1-2.33,0c-8.7-5.65-17.5-11.3-26.25-17A.91.91,0,0,1,38.82,73.78ZM41.52,57c.18.17.36.26.49.4Q54.13,65,66.19,72.62a.8.8,0,0,0,1-.05q12.25-7.74,24.5-15.43c.18-.13.4-.27.63-.45-.18-.13-.27-.22-.41-.31Q79.7,48.57,67.4,40.76c-.45-.31-.76-.13-1.12.09L49.55,51.8C46.86,53.51,44.21,55.26,41.52,57Z"/></g></g></svg>
