<svg xmlns="http://www.w3.org/2000/svg" xmlns:xlink="http://www.w3.org/1999/xlink" viewBox="0 0 130 130"><defs><style>.cls-1{isolation:isolate;}.cls-2{opacity:0.3;mix-blend-mode:multiply;}.cls-3{fill:url(#linear-gradient);}.cls-4{fill:#fff;}</style><linearGradient id="linear-gradient" x1="65" y1="9.27" x2="65" y2="120.73" gradientTransform="translate(113.33 -13.2) rotate(76.72)" gradientUnits="userSpaceOnUse"><stop offset="0" stop-color="#0025bc"/><stop offset="1" stop-color="#0071bc"/></linearGradient></defs><title>ICTE Base</title><g class="cls-1"><g id="Layer_1" data-name="Layer 1"><g class="cls-2"><circle cx="65" cy="66.74" r="55.73" transform="translate(-14.89 114.67) rotate(-76.72)"/></g><circle class="cls-3" cx="65" cy="65" r="55.73" transform="translate(-13.2 113.33) rotate(-76.72)"/><g id="Laag_2" data-name="Laag 2"><path class="cls-4" d="M72.28,65C109.89,72,58.72,111.82,22,75.8c43.34,28.88,65.66,1.74,50-10.12a.41.41,0,0,1-.09-.58A.43.43,0,0,1,72.28,65Z"/><path class="cls-4" d="M51.35,49.1c-32.53,10.85,4.74,36.42,8,23.5a.43.43,0,0,0-.3-.51.44.44,0,0,0-.23,0C54,73.72,27.64,66,51.35,49.1Z"/><path class="cls-4" d="M107.93,55.62c-28.17-20.93-81-3.67-53.77,11.1a.42.42,0,0,0,.57-.17.43.43,0,0,0,0-.37C43.65,41.78,100,49.2,107.93,55.62Z"/><path class="cls-4" d="M84.55,86C99.44,79,87.33,54.83,67.63,59.5a.42.42,0,0,1-.35-.73C82.61,46.77,111.38,74.78,84.55,86Z"/></g></g></g></svg>
