<svg xmlns="http://www.w3.org/2000/svg" xmlns:xlink="http://www.w3.org/1999/xlink" viewBox="0 0 130 130"><defs><style>.cls-1{isolation:isolate;}.cls-2{opacity:0.3;mix-blend-mode:multiply;}.cls-3{fill:url(#linear-gradient);}.cls-4{fill:#fff;}</style><linearGradient id="linear-gradient" x1="65" y1="9.27" x2="65" y2="120.73" gradientTransform="translate(113.33 -13.2) rotate(76.72)" gradientUnits="userSpaceOnUse"><stop offset="0" stop-color="#266a7b"/><stop offset="0.95" stop-color="#26a17b"/></linearGradient></defs><title>ICTE Base</title><g class="cls-1"><g id="Layer_1" data-name="Layer 1"><g class="cls-2"><circle cx="65" cy="66.74" r="55.73" transform="translate(-14.89 114.67) rotate(-76.72)"/></g><circle class="cls-3" cx="65" cy="65" r="55.73" transform="translate(-13.2 113.33) rotate(-76.72)"/><path class="cls-4" d="M72,54.57V46.13H91.33V33.25H38.72V46.13H58v8.44c-15.7.72-27.51,3.83-27.51,7.55S42.34,69,58,69.69V96.75H72V69.68c15.68-.72,27.46-3.83,27.46-7.55S87.69,55.3,72,54.58m0,12.81h0c-.39,0-2.42.15-6.93.15-3.6,0-6.14-.1-7-.15h0c-13.88-.61-24.23-3-24.23-5.92s10.36-5.3,24.23-5.92V65c.91.06,3.51.21,7.09.21,4.31,0,6.48-.18,6.87-.21V55.55c13.85.62,24.18,3,24.18,5.92S85.85,66.77,72,67.39"/></g></g></svg>
