<svg xmlns="http://www.w3.org/2000/svg" xmlns:xlink="http://www.w3.org/1999/xlink" viewBox="0 0 130 130"><defs><style>.cls-1{isolation:isolate;}.cls-2{opacity:0.3;mix-blend-mode:multiply;}.cls-3{fill:url(#linear-gradient);}.cls-4{fill:#fff;}</style><linearGradient id="linear-gradient" x1="65" y1="9.27" x2="65" y2="120.73" gradientTransform="translate(113.33 -13.2) rotate(76.72)" gradientUnits="userSpaceOnUse"><stop offset="0.04" stop-color="#010dcc"/><stop offset="1" stop-color="#015cff"/></linearGradient></defs><title>ICTE Base</title><g class="cls-1"><g id="Layer_1" data-name="Layer 1"><g class="cls-2"><circle cx="65" cy="66.74" r="55.73" transform="translate(-14.89 114.67) rotate(-76.72)"/></g><circle class="cls-3" cx="65" cy="65" r="55.73" transform="translate(-13.2 113.33) rotate(-76.72)"/><g id="Layer_1-2" data-name="Layer_1"><g id="_921457168" data-name=" 921457168"><path class="cls-4" d="M83.16,52.81,69.36,38.92a6.13,6.13,0,0,0-8.66,0L46.9,52.77a2,2,0,0,0,0,2.91l4.18,4.18,2.78,2.62a2.2,2.2,0,0,0,2.92,0l5.57-5.14a3.92,3.92,0,0,1,5.4,0l5.57,5.14a2.2,2.2,0,0,0,2.92,0L79,59.86l4.18-4.18A2.09,2.09,0,0,0,83.16,52.81Z"/><path class="cls-4" d="M39,69.35,60.65,91.08a6.14,6.14,0,0,0,8.67,0L91,69.35c3.74-3.74,1.13-4.87-1.66-7.48L86,58.64a2.15,2.15,0,0,0-2.92,0L77.5,63.78a3.91,3.91,0,0,1-5.4,0l-5.61-5.14a2.2,2.2,0,0,0-2.92,0L58,63.78a3.91,3.91,0,0,1-5.4,0L47,58.64a2.2,2.2,0,0,0-2.92,0L41,61.56C38.1,64.22,35.1,65.44,39,69.35Z"/></g></g></g></g></svg>
