<svg xmlns="http://www.w3.org/2000/svg" xmlns:xlink="http://www.w3.org/1999/xlink" viewBox="0 0 130 130"><defs><style>.cls-1{isolation:isolate;}.cls-2{opacity:0.3;mix-blend-mode:multiply;}.cls-3{fill:url(#linear-gradient);}.cls-4{fill:#fff;}</style><linearGradient id="linear-gradient" x1="65" y1="9.27" x2="65" y2="120.73" gradientTransform="translate(113.33 -13.2) rotate(76.72)" gradientUnits="userSpaceOnUse"><stop offset="0" stop-color="#297ee2"/><stop offset="1" stop-color="#1ac8ee"/></linearGradient></defs><title>ICTE Base</title><g class="cls-1"><g id="Layer_1" data-name="Layer 1"><g class="cls-2"><circle cx="65" cy="66.74" r="55.73" transform="translate(-14.89 114.67) rotate(-76.72)"/></g><circle class="cls-3" cx="65" cy="65" r="55.73" transform="translate(-13.2 113.33) rotate(-76.72)"/><path class="cls-4" d="M92.84,32.3a1.12,1.12,0,0,0-1-.72c-.67,0-15.15-.06-23.51,7.51-3.93,3.56-8.8,11.18-12.87,18.28-7.11-1.49-15.24,3.25-20.7,10a.67.67,0,0,0,.68,1.08,18.65,18.65,0,0,1,13.18,1.6c-.2.39-.39.77-.54,1.08A2.79,2.79,0,0,0,49,74.72l1.5,1.06c-5.69,8.52-7.19,17.4-3.28,20.16s11.77-1.64,17.89-9.85l1.5,1.06a2.79,2.79,0,0,0,1.63.52,2.84,2.84,0,0,0,2-.87l.83-.87A18.52,18.52,0,0,1,77,97.81a.68.68,0,0,0,1.25.28c4.56-7.42,6.3-16.67,2.52-22.87C86.06,69,91.61,61.87,93.65,57,98,46.55,93.05,32.88,92.84,32.3ZM51,90.58c-2.9-2-2.25-8,1.31-13.52l11,7.77C59.22,90.06,53.85,92.63,51,90.58ZM91.61,56.13c-2.8,6.75-13.71,19.49-23,29.15a.62.62,0,0,1-.81.07L50.22,72.93a.63.63,0,0,1-.2-.79C52.93,66.33,63,46.89,69.78,40.72S88,33.89,91,33.79C92,36.72,95.08,47.8,91.61,56.13Z"/><path class="cls-4" d="M82.94,45.24a9.19,9.19,0,1,0,2.21,12.81A9.21,9.21,0,0,0,82.94,45.24Zm.42,11.55A7,7,0,1,1,81.68,47,7,7,0,0,1,83.36,56.79Z"/></g></g></svg>
