<svg xmlns="http://www.w3.org/2000/svg" xmlns:xlink="http://www.w3.org/1999/xlink" viewBox="0 0 130 130"><defs><style>.cls-1{isolation:isolate;}.cls-2{opacity:0.3;mix-blend-mode:multiply;}.cls-3{fill:url(#linear-gradient);}.cls-4{fill:#fff;}</style><linearGradient id="linear-gradient" x1="65" y1="120.5" x2="65" y2="9.5" gradientTransform="translate(113.33 -13.2) rotate(76.72)" gradientUnits="userSpaceOnUse"><stop offset="0" stop-color="#ff6300"/><stop offset="1" stop-color="#d93633"/></linearGradient></defs><title>ICTE Base</title><g class="cls-1"><g id="Layer_1" data-name="Layer 1"><g class="cls-2"><circle cx="65" cy="66.74" r="55.5" transform="translate(-14.89 114.67) rotate(-76.72)"/></g><circle class="cls-3" cx="65" cy="65" r="55.5" transform="translate(-13.2 113.33) rotate(-76.72)"/><path class="cls-4" d="M65,70c-8.57-8.58-17-17-25.53-25.54V77.38c-.31,0-.56.06-.74.06H28.42c-.49,0-.73-.12-.86-.61a39.65,39.65,0,0,1-1.65-14.46A39.27,39.27,0,0,1,57.45,26.61,38,38,0,0,1,90.15,35a37.91,37.91,0,0,1,13.42,23.09A39.13,39.13,0,0,1,102.4,76.7c-.18.49-.36.68-.92.68h-11V44.55C82,53.13,73.56,61.52,65,70Z"/><path class="cls-4" d="M31.54,85.34H48V64.64l17,17c5.7-5.69,11.33-11.27,17-17V85.28H98.48A39.45,39.45,0,0,1,86.11,98a38.07,38.07,0,0,1-16.47,5.94A38.87,38.87,0,0,1,31.54,85.34Z"/></g></g></svg>
