<svg xmlns="http://www.w3.org/2000/svg" xmlns:xlink="http://www.w3.org/1999/xlink" viewBox="0 0 130 130"><defs><style>.cls-1{isolation:isolate;}.cls-2{opacity:0.3;mix-blend-mode:multiply;}.cls-3{fill:url(#linear-gradient);}.cls-4{fill:#fff;}</style><linearGradient id="linear-gradient" x1="65" y1="9.27" x2="65" y2="120.73" gradientTransform="translate(113.33 -13.2) rotate(76.72)" gradientUnits="userSpaceOnUse"><stop offset="0" stop-color="#2972e2"/><stop offset="1" stop-color="#29abe2"/></linearGradient></defs><title>ICTE Base</title><g class="cls-1"><g id="Layer_1" data-name="Layer 1"><g class="cls-2"><circle cx="65" cy="66.74" r="55.73" transform="translate(-14.89 114.67) rotate(-76.72)"/></g><circle class="cls-3" cx="65" cy="65" r="55.73" transform="translate(-13.2 113.33) rotate(-76.72)"/><path class="cls-4" d="M94.23,44.09A14.86,14.86,0,0,1,81.36,58.81c-1.35.17-2.75.17-4.1.45a5.92,5.92,0,0,0-3.37,9.61A6.53,6.53,0,0,0,78.55,71a26.24,26.24,0,0,1,5.56.9c5.68,1.91,8.94,6,9.89,11.91a14.93,14.93,0,0,1-11.57,16.86A14.94,14.94,0,0,1,66.08,78.71a8.61,8.61,0,0,0,1.18-4.22,5.89,5.89,0,0,0-4.16-5.34A5.53,5.53,0,0,0,57,71c-1,1.18-1.74,2.53-2.7,3.71a14.12,14.12,0,0,1-14.78,5A14.3,14.3,0,0,1,28.37,68.59,14.84,14.84,0,0,1,39.94,50.27c6.19-1.18,11.24.84,15.06,5.9a23,23,0,0,0,2.48,3.21,5.88,5.88,0,0,0,9.72-2.65A6.65,6.65,0,0,0,66.47,52a17.29,17.29,0,0,1-2.31-8.65,15.05,15.05,0,0,1,29.84-2C94.12,42.24,94.17,43.19,94.23,44.09Z"/></g></g></svg>
