<svg xmlns="http://www.w3.org/2000/svg" xmlns:xlink="http://www.w3.org/1999/xlink" viewBox="0 0 130 130"><defs><style>.cls-1{isolation:isolate;}.cls-2{opacity:0.3;mix-blend-mode:multiply;}.cls-3{fill:url(#linear-gradient);}.cls-4{fill:#fff;}</style><linearGradient id="linear-gradient" x1="65.49" y1="9.27" x2="65.49" y2="120.73" gradientTransform="translate(113.7 -13.67) rotate(76.72)" gradientUnits="userSpaceOnUse"><stop offset="0.05" stop-color="#3046ff"/><stop offset="1" stop-color="#3089ff"/></linearGradient></defs><title>ICTE Base</title><g class="cls-1"><g id="Layer_1" data-name="Layer 1"><g class="cls-2"><circle cx="65.49" cy="66.74" r="55.73" transform="translate(-14.51 115.14) rotate(-76.72)"/></g><circle class="cls-3" cx="65.49" cy="65" r="55.73" transform="translate(-12.82 113.8) rotate(-76.72)"/><path class="cls-4" d="M73.31,101.21c-5.21,0-9-1.21-11.39-3.73a11.43,11.43,0,0,1-3.54-8A4.9,4.9,0,0,1,59,86.8a4.19,4.19,0,0,1,1.67-1.67,5.51,5.51,0,0,1,2.64-.65,4.83,4.83,0,0,1,2.65.65,4.19,4.19,0,0,1,1.67,1.67,5.45,5.45,0,0,1,.65,2.64,5,5,0,0,1-.91,3.08,4.4,4.4,0,0,1-2.19,1.61,6.29,6.29,0,0,0,3.41,2.12,16,16,0,0,0,4.63.65A10,10,0,0,0,83,90a22,22,0,0,0,1.22-7.72,21.07,21.07,0,0,0-1.35-8,9.61,9.61,0,0,0-3.93-5,10.35,10.35,0,0,0-5.66-1.61,10.94,10.94,0,0,0-4.94,1.67l-3.63,1.74v-1.8l16.4-21.87H58.38V70.22a8.12,8.12,0,0,0,1.22,4.64,4.33,4.33,0,0,0,3.8,1.8,6.3,6.3,0,0,0,3.79-1.35,15,15,0,0,0,3.15-3.21,1.16,1.16,0,0,1,.39-.52.84.84,0,0,1,.52-.19,1.84,1.84,0,0,1,1.08.45,2.28,2.28,0,0,1,.59,1.54c0,.26-.13.65-.2,1.15a10.38,10.38,0,0,1-3.86,4.82A9.78,9.78,0,0,1,63.4,81c-4.95,0-8.31-1-10.24-2.89a10.89,10.89,0,0,1-2.82-7.85V47.51H38.76V43.27H50.41V33.62L47.76,31V28.79h7.72l2.89,1.47V43.2l30-.06,3,3L73,64.56a12.59,12.59,0,0,1,3.47-.84,14.69,14.69,0,0,1,6.69,1.93,13.64,13.64,0,0,1,5.79,5.14A19.28,19.28,0,0,1,91.57,77a28.33,28.33,0,0,1,.65,5.34A22.12,22.12,0,0,1,90,92.21,14.32,14.32,0,0,1,83.15,99,22.22,22.22,0,0,1,73.31,101.21Z"/></g></g></svg>
