<svg xmlns="http://www.w3.org/2000/svg" xmlns:xlink="http://www.w3.org/1999/xlink" viewBox="0 0 130 130"><defs><style>.cls-1{isolation:isolate;}.cls-2{opacity:0.3;mix-blend-mode:multiply;}.cls-3{fill:url(#linear-gradient);}.cls-4{fill:#fff;}</style><linearGradient id="linear-gradient" x1="65" y1="9.27" x2="65" y2="120.73" gradientTransform="translate(113.33 -13.2) rotate(76.72)" gradientUnits="userSpaceOnUse"><stop offset="0" stop-color="#f99521"/><stop offset="1" stop-color="#edc356"/></linearGradient></defs><title>ICTE Base</title><g class="cls-1"><g id="Layer_1" data-name="Layer 1"><g class="cls-2"><circle cx="65" cy="66.74" r="55.73" transform="translate(-14.89 114.67) rotate(-76.72)"/></g><circle class="cls-3" cx="65" cy="65" r="55.73" transform="translate(-13.2 113.33) rotate(-76.72)"/><path class="cls-4" d="M59.17,40.25v-9H70.46v8.91h13.7c-.47,4.32,1.06,8.49-2.21,12.5-6.43,7.9-12.39,16.24-18.56,24.41a3,3,0,0,0-.1.68H84.85V90H70.56v8.75H59.33v-8.6H45.15c.26-4.42-.84-8.48,2.48-12.44,6.59-7.91,12.6-16.29,18.82-24.46a4.49,4.49,0,0,0,.32-.79H46.94V40.35C51,40.25,54.9,40.25,59.17,40.25Z"/></g></g></svg>
